<svg width="24" height="24" viewBox="0 0 24 24" fill="none" xmlns="http://www.w3.org/2000/svg">
<g clip-path="url(#clip0_362_12454)">
<path d="M15.85 3.3635L16.057 3.9165L16.264 3.3635C16.3505 3.13256 16.4855 2.92285 16.6599 2.74853C16.8343 2.57421 17.044 2.43933 17.275 2.353L17.825 2.146L17.275 1.939C17.0442 1.85244 16.8346 1.71741 16.6604 1.54301C16.4862 1.36861 16.3514 1.1589 16.265 0.928L16.058 0.375L15.85 0.928C15.7637 1.1589 15.6289 1.36861 15.4546 1.54301C15.2804 1.71741 15.0708 1.85244 14.84 1.939L14.287 2.146L14.84 2.353C15.0708 2.43945 15.2804 2.57439 15.4546 2.7487C15.6289 2.92302 15.7637 3.13266 15.85 3.3635ZM19.6885 5.397L19.845 5.816L20 5.397C20.0655 5.22182 20.1678 5.06274 20.3 4.9305C20.4323 4.79827 20.5913 4.69596 20.7665 4.6305L21.1855 4.4735L20.7665 4.3165C20.5913 4.25104 20.4323 4.14873 20.3 4.0165C20.1678 3.88426 20.0655 3.72518 20 3.55L19.843 3.131L19.6865 3.55C19.6209 3.7251 19.5186 3.8841 19.3863 4.01632C19.2541 4.14854 19.0951 4.25089 18.92 4.3165L18.5005 4.4735L18.92 4.6305C19.0955 4.69586 19.2549 4.79811 19.3875 4.93034C19.52 5.06257 19.6227 5.22171 19.6885 5.397ZM22.031 3.069L22.1875 3.4885L22.3445 3.069C22.4101 2.8939 22.5125 2.7349 22.6447 2.60268C22.7769 2.47046 22.9359 2.36811 23.111 2.3025L23.53 2.146L23.111 1.989C22.9358 1.92354 22.7768 1.82123 22.6445 1.689C22.5123 1.55676 22.41 1.39768 22.3445 1.2225L22.1875 0.8035L22.031 1.2225C21.9654 1.3976 21.8631 1.5566 21.7308 1.68882C21.5986 1.82104 21.4396 1.92339 21.2645 1.989L20.845 2.146L21.2645 2.3025C21.4395 2.36828 21.5984 2.47069 21.7306 2.60289C21.8628 2.73508 21.9652 2.894 22.031 3.069ZM19.9405 22.0765V23.118C19.9405 23.1848 19.9537 23.2509 19.9794 23.3126C20.005 23.3743 20.0426 23.4303 20.0899 23.4774C20.1372 23.5245 20.1934 23.5618 20.2552 23.5871C20.317 23.6125 20.3832 23.6253 20.45 23.625H22.4C22.5345 23.625 22.6634 23.5716 22.7585 23.4765C22.8536 23.3814 22.907 23.2525 22.907 23.118V21.1105C22.5852 21.4339 22.1995 21.6868 21.7746 21.8531C21.3497 22.0194 20.8949 22.0955 20.439 22.0765H19.9405ZM1.06602 21.081V23.118C1.06602 23.2525 1.11944 23.3814 1.21452 23.4765C1.3096 23.5716 1.43856 23.625 1.57302 23.625H3.52302C3.65749 23.625 3.78645 23.5716 3.88153 23.4765C3.97661 23.3814 4.03002 23.2525 4.03002 23.118V22.0765H3.56252C3.09967 22.0965 2.63785 22.0181 2.20752 21.8465C1.77719 21.6749 1.38814 21.414 1.06602 21.081ZM1.08052 19.05C1.08052 20.487 2.08052 21.3245 3.56252 21.3245H20.438C21.918 21.3245 22.92 20.487 22.92 19.05V18.635H1.08052V19.05ZM23.15 9.8L21.9 9.583C21.8002 9.56557 21.6974 9.58235 21.6083 9.63063C21.5192 9.6789 21.449 9.75585 21.409 9.849L21.02 10.7285L20.862 10.4875L19.766 7.9C19.5892 7.48024 19.3085 7.11238 18.9503 6.83107C18.5921 6.54975 18.1682 6.36424 17.7185 6.292C15.8261 6.00467 13.9141 5.86509 12 5.8745C10.086 5.86556 8.17426 6.00565 6.28202 6.2935C5.83189 6.36539 5.40749 6.55074 5.04883 6.83207C4.69016 7.1134 4.40906 7.48145 4.23202 7.9015L3.13852 10.485L2.98302 10.7225L2.59152 9.8465C2.55159 9.75335 2.48139 9.6764 2.39228 9.62813C2.30316 9.57985 2.20036 9.56307 2.10052 9.5805L0.850024 9.8C0.734505 9.81867 0.629423 9.8779 0.55364 9.96707C0.477856 10.0562 0.436333 10.1695 0.436524 10.2865V10.532C0.436548 10.6447 0.475087 10.754 0.545749 10.8417C0.616412 10.9295 0.714951 10.9904 0.825024 11.0145L2.53702 11.406L1.71702 12.656C1.30204 13.2889 1.08098 14.0292 1.08102 14.786V17.886H22.92V14.786C22.9199 14.0292 22.6987 13.2888 22.2835 12.656L21.4605 11.4L23.1755 11.0135C23.2856 10.9894 23.3841 10.9285 23.4548 10.8407C23.5255 10.753 23.564 10.6437 23.564 10.531V10.2855C23.564 10.1686 23.5223 10.0555 23.4464 9.96654C23.3705 9.87758 23.2655 9.81854 23.15 9.8ZM4.92452 8.1945C5.05085 7.89113 5.25279 7.62519 5.51109 7.42203C5.76939 7.21888 6.07543 7.08529 6.40002 7.034C8.25327 6.75272 10.1256 6.61581 12 6.6245C13.8745 6.61581 15.7468 6.75272 17.6 7.034C17.9244 7.08544 18.2301 7.21905 18.4882 7.4221C18.7463 7.62515 18.9482 7.89088 19.0745 8.194L19.917 10.181H4.08202L4.92452 8.1945ZM3.33402 15.4445C3.18704 15.4231 3.04988 15.358 2.94031 15.2577C2.83075 15.1574 2.75383 15.0265 2.71952 14.882C2.67432 14.7134 2.6566 14.5387 2.66702 14.3645C2.70752 13.9145 2.84902 13.693 3.13502 13.693C3.13502 13.693 5.09602 13.815 5.36102 13.8965C5.62602 13.978 6.64302 15.9115 6.64302 15.9115L3.33402 15.4445ZM15.896 16.1945L11.976 16.4185L8.10402 16.2L7.11652 14.1055C7.11652 14.1055 10.595 14.4085 11.9995 14.4085C13.404 14.4085 16.8835 14.1055 16.8835 14.1055L15.896 16.1945ZM21.28 14.884C21.2457 15.0285 21.1688 15.1594 21.0592 15.2597C20.9497 15.36 20.8125 15.4251 20.6655 15.4465L17.3565 15.9135C17.3565 15.9135 18.374 13.98 18.639 13.8985C18.904 13.817 20.8645 13.695 20.8645 13.695C21.151 13.695 21.292 13.9185 21.3325 14.3665C21.343 14.5407 21.3252 14.7154 21.28 14.884Z" fill="#1E1E1E"/>
</g>
<defs>
<clipPath id="clip0_362_12454">
<rect width="24" height="24" fill="white"/>
</clipPath>
</defs>
</svg>
