<svg width="24" height="24" viewBox="0 0 24 24" fill="none" xmlns="http://www.w3.org/2000/svg">
<path d="M17 22.75H3C2.53603 22.7495 2.09122 22.5649 1.76315 22.2369C1.43507 21.9088 1.25053 21.464 1.25 21V3C1.25053 2.53603 1.43507 2.09122 1.76315 1.76315C2.09122 1.43507 2.53603 1.25053 3 1.25H17C17.464 1.25053 17.9088 1.43507 18.2369 1.76315C18.5649 2.09122 18.7495 2.53603 18.75 3V14C18.75 14.1989 18.671 14.3897 18.5303 14.5303C18.3897 14.671 18.1989 14.75 18 14.75C17.8011 14.75 17.6103 14.671 17.4697 14.5303C17.329 14.3897 17.25 14.1989 17.25 14V3C17.2492 2.93394 17.2226 2.8708 17.1759 2.82408C17.1292 2.77737 17.0661 2.75078 17 2.75H3C2.93394 2.75078 2.8708 2.77737 2.82408 2.82408C2.77737 2.8708 2.75078 2.93394 2.75 3V21C2.75078 21.0661 2.77737 21.1292 2.82408 21.1759C2.8708 21.2226 2.93394 21.2492 3 21.25H17C17.1879 21.1755 17.3975 21.1772 17.5842 21.2547C17.7709 21.3321 17.92 21.4793 18 21.665C18.0389 21.7544 18.0596 21.8506 18.0609 21.9481C18.0622 22.0456 18.0441 22.1423 18.0076 22.2327C17.9711 22.3231 17.917 22.4053 17.8484 22.4746C17.7798 22.5438 17.6981 22.5987 17.608 22.636C17.4145 22.7126 17.2081 22.7513 17 22.75Z" fill="black"/>
<path d="M14.5 6.75H5.5C5.30109 6.75 5.11032 6.67098 4.96967 6.53033C4.82902 6.38968 4.75 6.19891 4.75 6C4.75 5.80109 4.82902 5.61032 4.96967 5.46967C5.11032 5.32902 5.30109 5.25 5.5 5.25H14.5C14.6989 5.25 14.8897 5.32902 15.0303 5.46967C15.171 5.61032 15.25 5.80109 15.25 6C15.25 6.19891 15.171 6.38968 15.0303 6.53033C14.8897 6.67098 14.6989 6.75 14.5 6.75ZM14.5 10.75H5.5C5.30109 10.75 5.11032 10.671 4.96967 10.5303C4.82902 10.3897 4.75 10.1989 4.75 10C4.75 9.80109 4.82902 9.61032 4.96967 9.46967C5.11032 9.32902 5.30109 9.25 5.5 9.25H14.5C14.6989 9.25 14.8897 9.32902 15.0303 9.46967C15.171 9.61032 15.25 9.80109 15.25 10C15.25 10.1989 15.171 10.3897 15.0303 10.5303C14.8897 10.671 14.6989 10.75 14.5 10.75ZM12 14.75H5.5C5.30109 14.75 5.11032 14.671 4.96967 14.5303C4.82902 14.3897 4.75 14.1989 4.75 14C4.75 13.8011 4.82902 13.6103 4.96967 13.4697C5.11032 13.329 5.30109 13.25 5.5 13.25H12C12.1989 13.25 12.3897 13.329 12.5303 13.4697C12.671 13.6103 12.75 13.8011 12.75 14C12.75 14.1989 12.671 14.3897 12.5303 14.5303C12.3897 14.671 12.1989 14.75 12 14.75ZM11 18.75H5.5C5.30109 18.75 5.11032 18.671 4.96967 18.5303C4.82902 18.3897 4.75 18.1989 4.75 18C4.75 17.8011 4.82902 17.6103 4.96967 17.4697C5.11032 17.329 5.30109 17.25 5.5 17.25H11C11.1989 17.25 11.3897 17.329 11.5303 17.4697C11.671 17.6103 11.75 17.8011 11.75 18C11.75 18.1989 11.671 18.3897 11.5303 18.5303C11.3897 18.671 11.1989 18.75 11 18.75ZM18 22.75C17.0605 22.75 16.1422 22.4714 15.361 21.9495C14.5799 21.4275 13.9711 20.6857 13.6116 19.8177C13.2521 18.9498 13.158 17.9947 13.3413 17.0733C13.5245 16.1519 13.9769 15.3055 14.6412 14.6412C15.3055 13.9769 16.1519 13.5245 17.0733 13.3413C17.9947 13.158 18.9498 13.2521 19.8177 13.6116C20.6857 13.9711 21.4275 14.5799 21.9495 15.361C22.4714 16.1422 22.75 17.0605 22.75 18C22.7487 19.2594 22.2478 20.4668 21.3573 21.3573C20.4668 22.2478 19.2594 22.7487 18 22.75ZM18 14.75C17.3572 14.75 16.7289 14.9406 16.1944 15.2977C15.6599 15.6548 15.2434 16.1624 14.9974 16.7563C14.7514 17.3501 14.687 18.0036 14.8124 18.634C14.9378 19.2645 15.2474 19.8436 15.7019 20.2981C16.1564 20.7526 16.7355 21.0621 17.366 21.1876C17.9964 21.313 18.6499 21.2486 19.2437 21.0026C19.8376 20.7566 20.3452 20.3401 20.7023 19.8056C21.0594 19.2711 21.25 18.6428 21.25 18C21.2489 17.1384 20.9062 16.3123 20.2969 15.7031C19.6877 15.0938 18.8616 14.7511 18 14.75Z" fill="black"/>
<path d="M17.5002 19.7498C17.4017 19.7499 17.3042 19.7304 17.2132 19.6927C17.1223 19.6549 17.0397 19.5996 16.9702 19.5298L15.9702 18.5298C15.8965 18.4612 15.8374 18.3784 15.7964 18.2864C15.7554 18.1944 15.7333 18.0951 15.7316 17.9944C15.7298 17.8937 15.7483 17.7936 15.786 17.7002C15.8238 17.6069 15.8799 17.522 15.9511 17.4508C16.0223 17.3796 16.1072 17.3234 16.2006 17.2857C16.2939 17.248 16.394 17.2295 16.4947 17.2313C16.5954 17.233 16.6947 17.2551 16.7867 17.2961C16.8787 17.3371 16.9615 17.3962 17.0302 17.4698L17.5002 17.9398L18.9702 16.4698C19.1123 16.3374 19.3004 16.2652 19.4947 16.2687C19.689 16.2721 19.8744 16.3508 20.0118 16.4882C20.1492 16.6256 20.2279 16.811 20.2313 17.0053C20.2348 17.1996 20.1626 17.3877 20.0302 17.5298L18.0302 19.5298C17.9606 19.5996 17.878 19.6549 17.7871 19.6927C17.6961 19.7304 17.5986 19.7499 17.5002 19.7498Z" fill="black"/>
</svg>
