<svg width="24" height="24" viewBox="0 0 24 24" fill="none" xmlns="http://www.w3.org/2000/svg">
<path d="M7.18986 9.33575C8.22874 9.33476 9.2248 8.92167 9.95947 8.18714C10.6941 7.45261 11.1074 6.45663 11.1086 5.41775C10.8926 0.2195 3.48598 0.220625 3.27148 5.41812C3.27268 6.45688 3.68585 7.45274 4.42036 8.18725C5.15486 8.92176 6.15073 9.33493 7.18948 9.33613L7.18986 9.33575ZM7.18986 2.24937C8.03002 2.25017 8.83554 2.58427 9.42963 3.17836C10.0237 3.77244 10.3578 4.57796 10.3586 5.41812C10.1989 9.61475 4.18048 9.614 4.02186 5.41812C4.02265 4.57809 4.35665 3.77268 4.95058 3.17862C5.5445 2.58456 6.34983 2.25037 7.18986 2.24937Z" fill="#1E1E1E"/>
<path d="M7.19005 6.76231C6.71493 6.76231 6.3838 6.50656 6.3838 6.27706C6.3838 6.17761 6.3443 6.08222 6.27397 6.0119C6.20364 5.94157 6.10826 5.90206 6.0088 5.90206C5.90935 5.90206 5.81397 5.94157 5.74364 6.0119C5.67331 6.08222 5.6338 6.17761 5.6338 6.27706C5.65935 6.5833 5.79161 6.87084 6.00749 7.08953C6.22337 7.30822 6.50918 7.44418 6.81505 7.47369V7.77931C6.81505 7.87877 6.85456 7.97415 6.92489 8.04448C6.99522 8.1148 7.0906 8.15431 7.19005 8.15431C7.28951 8.15431 7.38489 8.1148 7.45522 8.04448C7.52555 7.97415 7.56505 7.87877 7.56505 7.77931V7.47369C7.87085 7.44412 8.15657 7.30819 8.37243 7.08959C8.58829 6.87099 8.7206 6.58358 8.7463 6.27744C8.7463 5.58444 8.06268 5.04219 7.19005 5.04219C6.71493 5.04219 6.3838 4.78681 6.3838 4.55694C6.42355 3.92319 7.95693 3.92244 7.9963 4.55694C7.9963 4.65639 8.03581 4.75178 8.10614 4.8221C8.17647 4.89243 8.27185 4.93194 8.3713 4.93194C8.47076 4.93194 8.56614 4.89243 8.63647 4.8221C8.7068 4.75178 8.7463 4.65639 8.7463 4.55694C8.7206 4.2508 8.58829 3.96338 8.37243 3.74478C8.15657 3.52618 7.87085 3.39025 7.56505 3.36069V3.05469C7.56505 2.95523 7.52555 2.85985 7.45522 2.78952C7.38489 2.7192 7.28951 2.67969 7.19005 2.67969C7.0906 2.67969 6.99522 2.7192 6.92489 2.78952C6.85456 2.85985 6.81505 2.95523 6.81505 3.05469V3.36031C5.0308 3.72406 5.3848 5.79481 7.19005 5.79219C8.2483 5.81994 8.24755 6.73456 7.19005 6.76231ZM3.88968 13.9931L3.48205 14.1929C3.39274 14.2367 3.32447 14.3141 3.29226 14.4082C3.26005 14.5023 3.26654 14.6054 3.3103 14.6947C3.35407 14.784 3.43151 14.8523 3.52561 14.8845C3.61971 14.9167 3.72274 14.9102 3.81205 14.8664C8.82474 12.4856 13.2937 9.09843 16.9408 4.91581V5.41719C16.9408 5.51664 16.9803 5.61203 17.0506 5.68235C17.121 5.75268 17.2163 5.79219 17.3158 5.79219C17.4153 5.79219 17.5106 5.75268 17.581 5.68235C17.6513 5.61203 17.6908 5.51664 17.6908 5.41719V3.89881C17.6867 3.80068 17.6458 3.70769 17.5764 3.63824C17.5069 3.56879 17.4139 3.52795 17.3158 3.52381H15.7974C15.698 3.52381 15.6026 3.56332 15.5323 3.63365C15.4619 3.70397 15.4224 3.79936 15.4224 3.89881C15.4224 3.99827 15.4619 4.09365 15.5323 4.16398C15.6026 4.2343 15.698 4.27381 15.7974 4.27381H16.5036C13.0008 8.33486 8.70935 11.6418 3.88968 13.9938V13.9931ZM21.8724 21.7488H20.7287V8.45469C20.7287 8.35523 20.6892 8.25985 20.6188 8.18952C20.5485 8.1192 20.4531 8.07969 20.3537 8.07969H17.3162C17.2167 8.07969 17.1213 8.1192 17.051 8.18952C16.9807 8.25985 16.9412 8.35523 16.9412 8.45469V21.7488H16.1721V11.4926C16.1721 11.3931 16.1325 11.2977 16.0622 11.2274C15.9919 11.1571 15.8965 11.1176 15.7971 11.1176H12.7596C12.6601 11.1176 12.5647 11.1571 12.4944 11.2274C12.4241 11.2977 12.3846 11.3931 12.3846 11.4926V21.7488H11.6158V14.5297C11.6158 14.4302 11.5763 14.3348 11.506 14.2645C11.4356 14.1942 11.3403 14.1547 11.2408 14.1547H8.2033C8.10385 14.1547 8.00847 14.1942 7.93814 14.2645C7.86781 14.3348 7.8283 14.4302 7.8283 14.5297V21.7488H7.05955V17.5676C7.05955 17.4681 7.02005 17.3727 6.94972 17.3024C6.87939 17.2321 6.78401 17.1926 6.68455 17.1926H3.64705C3.5476 17.1926 3.45222 17.2321 3.38189 17.3024C3.31156 17.3727 3.27205 17.4681 3.27205 17.5676V21.7488H2.12793C2.02847 21.7488 1.93309 21.7883 1.86276 21.8586C1.79244 21.929 1.75293 22.0244 1.75293 22.1238C1.75293 22.2233 1.79244 22.3187 1.86276 22.389C1.93309 22.4593 2.02847 22.4988 2.12793 22.4988H21.8724C21.9719 22.4988 22.0673 22.4593 22.1376 22.389C22.2079 22.3187 22.2474 22.2233 22.2474 22.1238C22.2474 22.0244 22.2079 21.929 22.1376 21.8586C22.0673 21.7883 21.9719 21.7488 21.8724 21.7488ZM4.02205 21.7488V17.9426H6.30955V21.7488H4.02205ZM8.5783 21.7488V14.9047H10.8658V21.7488H8.5783ZM13.1346 21.7488V11.8676H15.4221V21.7488H13.1346ZM17.6916 21.7488V8.82969H19.9791V21.7488H17.6916Z" fill="#1E1E1E"/>
</svg>
