<svg width="102" height="37" viewBox="0 0 102 37" fill="none" xmlns="http://www.w3.org/2000/svg">
<path d="M6.96 5.715C6.66 5.715 6.39 5.865 6.15 6.165V18.045H12.495V19.125L10.245 20.25H6.15V24.75C6.15 28.08 6.48 30.03 7.14 30.6C8.13 31.44 9.21 31.92 10.38 32.04C11.55 32.16 12.81 32.22 14.16 32.22V33.525C14.01 33.525 12.9 33.945 10.83 34.785C8.76 35.595 7.5 36 7.05 36C6.12 36 4.83 35.28 3.18 33.84C1.56 32.4 0.75 30.84 0.75 29.16V5.49C0.75 5.28 2.46 4.545 5.88 3.285C9.33 1.995 11.31 1.35 11.82 1.35C12 1.35 12.21 1.785 12.45 2.655C12.69 3.525 12.96 4.575 13.26 5.805C13.59 7.035 13.92 7.95 14.25 8.55C14.61 9.12 15.27 9.405 16.23 9.405V10.305C15.57 10.605 14.445 11.145 12.855 11.925C11.295 12.675 10.455 13.05 10.335 13.05C9.885 13.05 9.315 11.835 8.625 9.405C7.935 6.945 7.38 5.715 6.96 5.715ZM17.2334 14.04V13.095L21.9134 10.35H23.1734L28.4384 20.97L29.5634 20.43V16.875C29.5634 16.005 29.4134 15.33 29.1134 14.85C28.8134 14.34 28.5134 14.04 28.2134 13.95L27.7184 13.86V12.87L32.0384 10.305C32.2784 10.305 32.7884 10.65 33.5684 11.34C34.3484 12 34.7384 12.63 34.7384 13.23V20.25C34.7384 20.73 32.9984 21.6 29.5184 22.86L34.0634 31.32C34.4534 31.95 35.2634 32.265 36.4934 32.265V33.255L31.5884 36H30.3284L24.6584 24.615L23.4434 25.2V29.43C23.4434 30.3 23.5934 30.99 23.8934 31.5C24.1934 31.98 24.4934 32.25 24.7934 32.31L25.2884 32.445V33.435L20.9684 36C20.7284 36 20.2184 35.67 19.4384 35.01C18.6584 34.32 18.2684 33.675 18.2684 33.075V25.38C18.2684 24.9 20.0534 24 23.6234 22.68L20.1134 15.525C19.9034 15.075 19.6184 14.73 19.2584 14.49C18.9284 14.25 18.6284 14.115 18.3584 14.085C18.0884 14.055 17.7134 14.04 17.2334 14.04ZM43.943 13.41V29.34C43.943 31.17 44.558 32.205 45.788 32.445V33.435L41.243 36C40.583 35.73 39.968 35.295 39.398 34.695C38.828 34.065 38.543 33.48 38.543 32.94V17.01C38.543 15.18 37.928 14.145 36.698 13.905V12.915L41.243 10.35C41.903 10.62 42.518 11.07 43.088 11.7C43.658 12.3 43.943 12.87 43.943 13.41ZM37.868 4.725V1.98C37.868 1.89 38.483 1.62 39.713 1.17C40.973 0.689999 41.693 0.449999 41.873 0.449999C42.083 0.449999 42.368 0.704998 42.728 1.215C43.118 1.725 43.313 2.25 43.313 2.79V6.075C43.313 6.165 42.713 6.45 41.513 6.93C40.313 7.38 39.578 7.605 39.308 7.605C39.038 7.605 38.723 7.35 38.363 6.84C38.033 6.3 37.868 5.595 37.868 4.725ZM53.8307 5.67V11.025H56.1257L55.6757 13.23H53.8307V29.34C53.8307 31.17 54.4457 32.205 55.6757 32.445V33.435L51.1307 36C50.4707 35.73 49.8557 35.295 49.2857 34.695C48.7157 34.065 48.4307 33.48 48.4307 32.94V13.275H46.5857L47.0357 11.385C47.9357 11.385 49.0157 10.785 50.2757 9.585C51.5657 8.355 52.3307 7.05 52.5707 5.67H53.8307ZM76.3377 31.32V9.675C76.3377 8.565 76.2177 7.77 75.9777 7.29C75.7377 6.81 75.2427 6.57 74.4927 6.57V5.175L83.7177 1.305L84.4377 2.745C83.7777 2.745 83.1477 3.135 82.5477 3.915C82.0077 4.665 81.7377 5.805 81.7377 7.335V28.62C81.7377 29.61 81.9477 30.465 82.3677 31.185C82.7877 31.905 83.3127 32.265 83.9427 32.265V33.255C83.7327 33.285 82.0977 34.2 79.0377 36C78.8277 35.94 78.5727 35.865 78.2727 35.775C77.9727 35.655 77.5677 35.355 77.0577 34.875C76.5777 34.395 76.3377 33.84 76.3377 33.21C76.1577 33.3 75.6477 33.585 74.8077 34.065C72.5877 35.325 71.2677 35.955 70.8477 35.955C69.8877 35.955 68.9877 35.34 68.1477 34.11C67.3077 32.85 66.8877 31.68 66.8877 30.6V7.965C66.8877 6.315 66.1527 5.34 64.6827 5.04V4.05L69.5877 1.305C70.2477 1.575 70.8627 2.025 71.4327 2.655C72.0027 3.255 72.2877 3.825 72.2877 4.365V26.415C72.2877 28.305 72.5577 29.595 73.0977 30.285C73.6677 30.975 74.7477 31.32 76.3377 31.32ZM88.9686 21.645C88.2186 21.645 87.5736 21.075 87.0336 19.935C86.4936 18.795 86.2236 17.4 86.2236 15.75V6.39C86.2236 5.82 87.7986 4.845 90.9486 3.465C94.0986 2.055 95.9136 1.35 96.3936 1.35C96.7536 1.35 97.2636 1.95 97.9236 3.15C98.0736 3.45 98.2836 3.855 98.5536 4.365C98.8536 4.875 99.0936 5.295 99.2736 5.625C99.6636 6.345 100.159 6.705 100.759 6.705V7.605C100.279 7.815 99.6336 8.13 98.8236 8.55C96.9336 9.6 95.9136 10.125 95.7636 10.125C95.3136 10.125 94.7436 9.24 94.0536 7.47C93.3936 5.7 92.8536 4.815 92.4336 4.815C91.8936 4.815 91.6236 5.265 91.6236 6.165V16.2C91.6236 17.4 91.8936 18 92.4336 18C92.5536 18 93.4836 17.61 95.2236 16.83C96.9636 16.05 98.0136 15.66 98.3736 15.66C99.0936 15.66 99.7236 16.245 100.264 17.415C100.834 18.555 101.119 20.025 101.119 21.825V31.41C101.119 31.98 99.3936 32.97 95.9436 34.38C92.5236 35.76 90.5586 36.45 90.0486 36.45C89.8386 36.45 89.5986 36.195 89.3286 35.685C89.0586 35.175 88.6986 34.455 88.2486 33.525C87.8286 32.565 87.4386 31.77 87.0786 31.14C86.7486 30.51 86.2836 30.195 85.6836 30.195V29.295C86.1636 29.085 86.7936 28.77 87.5736 28.35C89.4936 27.3 90.5286 26.775 90.6786 26.775C91.1286 26.775 91.7586 27.81 92.5686 29.88C93.4086 31.95 94.0386 32.985 94.4586 32.985C94.7586 32.985 95.0436 32.865 95.3136 32.625C95.5836 32.385 95.7186 32.055 95.7186 31.635V21.51C95.7186 20.16 95.3436 19.485 94.5936 19.485C94.3536 19.485 93.4086 19.845 91.7586 20.565C90.1086 21.285 89.1786 21.645 88.9686 21.645Z" fill="url(#paint0_linear_122_1181)"/>
<defs>
<linearGradient id="paint0_linear_122_1181" x1="51" y1="-3" x2="51" y2="42" gradientUnits="userSpaceOnUse">
<stop stop-color="#FCAC43"/>
<stop offset="1" stop-color="#FEFED6"/>
</linearGradient>
</defs>
</svg>
